<?xml version="1.0" encoding="utf-8"?>
<!-- Generator: Adobe Illustrator 19.2.1, SVG Export Plug-In . SVG Version: 6.00 Build 0)  -->
<svg version="1.1" id="レイヤー_1" xmlns="http://www.w3.org/2000/svg" xmlns:xlink="http://www.w3.org/1999/xlink" x="0px"
	 y="0px" viewBox="0 0 600 600" style="enable-background:new 0 0 600 600;" xml:space="preserve">
<style type="text/css">
	.st0{fill:#AAAAAA;}
</style>
<g>
	<path class="st0" d="M446.8,453.2c0-81.1-65.7-146.8-146.8-146.8c-32.5,0-62.6,10.6-87,28.5c-54.8-30.5-91.8-89.1-91.8-156.2
		c0-97.2,77.6-176.2,174-178.7C131.8,2.6,0,135.9,0,300c0,165.7,134.3,300,300,300C381.1,600,446.8,534.3,446.8,453.2z"/>
	<path class="st0" d="M300,0c-81.1,0-146.8,65.7-146.8,146.8S218.9,293.6,300,293.6c32.5,0,62.6-10.6,87-28.5
		c54.8,30.5,91.8,89.1,91.8,156.2c0,97.2-77.6,176.2-174,178.7C468.2,597.6,600,464.3,600,300C600,134.3,465.7,0,300,0z"/>
</g>
</svg>
